<?xml version="1.0" encoding="utf-8"?>
<!-- Generator: Adobe Illustrator 13.0.0, SVG Export Plug-In . SVG Version: 6.00 Build 14948)  -->
<!DOCTYPE svg PUBLIC "-//W3C//DTD SVG 1.1//EN" "http://www.w3.org/Graphics/SVG/1.1/DTD/svg11.dtd">
<svg version="1.1" id="Layer_1" xmlns="http://www.w3.org/2000/svg" xmlns:xlink="http://www.w3.org/1999/xlink" x="0px" y="0px"
	 width="305px" height="305px" viewBox="0 0 305 305" enable-background="new 0 0 305 305" xml:space="preserve">
<circle fill="#9BCC5E" stroke="#000000" stroke-width="10" cx="152.5" cy="152.5" r="147.5"/>
<g>
	<path d="M269.355,204.798l-0.604-4.164c-4.134-0.273-6.947-0.654-8.314-0.869c-0.303-0.048-0.535-0.088-0.695-0.116
		c-0.176-0.031-0.273-0.049-0.273-0.049c-3.744-0.649-7.443-2.244-10.997-4.379c-0.476-0.286-0.95-0.579-1.421-0.884
		c-3.348-15.035-6.297-26.766-8.855-35.91c-3.751-13.405-6.668-21.269-8.793-25.875l-0.611-1.045c0,0-1.559,0.369-2.589,4.631
		c-0.745,3.085-1.214,8.207-0.607,16.728c0,0,0.126,1.45,0.401,3.939c0.126,1.138,0.282,2.484,0.472,4.021
		c0.564,4.574,1.428,10.76,2.64,17.567c1.65,9.268,3.951,19.688,7.051,28.8c0,0,2.199,6.917,4.481,8.192
		c0,0,1.345,1.012,6.038,0.333l19.652-2.847C266.33,212.872,270.617,211.445,269.355,204.798z"/>
	<path fill="#B3B3B3" d="M22.85,167.208c0,0,6.96,12.925,15.51,22.073c8.551,9.147,21.079,21.276,35.795,24.855
		c0,0,23.464,6.165,65.82,6.165c0,0,64.229,0.398,113.744-10.539c0,0,17.102-3.579,21.873-7.158c0,0,1.592-0.797,1.99-1.989
		c0,0,0.596-2.386,1.191-2.784c0,0,2.785-2.983,0.598-6.96l-0.396-8.352l2.385-1.591c0,0,2.387-1.194,2.983-6.164
		c0,0,2.585-28.438-15.312-47.327c0,0-10.539-14.12-66.218-21.08c0,0-1.79,0.102-5.17-4.075c0,0-18.195-21.773-42.555-26.448
		c0,0-25.752-6.363-59.557-6.363c0,0-22.869-0.099-35.545,3.479c0,0-6.115,0.746-12.379,11.484c0,0-3.729,6.115-5.966,11.932
		c0,0-2.983,7.755-3.729,11.483c0,0-13.571,5.22-15.211,15.51c0,0-4.326,3.729-4.326,6.265
		C18.375,129.624,16.437,154.531,22.85,167.208z"/>
	<path fill="#A7A9AC" d="M258.112,125.967c-73.177-7.955-136.903-0.319-136.903-0.319s62.943-9.374,137.029,0.479"/>
	<path fill="#E7E8E9" d="M56.456,105.363l2.784-21.077c0,0,0-8.353,14.316-9.545c0,0,42.157-6.761,93.063,5.965
		c0,0,18.694,9.148,32.215,24.261C198.835,104.967,119.294,98.603,56.456,105.363z"/>
	<path fill="#FFFFFF" stroke="#000000" d="M135.174,156.669c-2.946-12.764-12.08-26.596-15.225-31.099
		c-0.447,0.05-0.684,0.077-0.684,0.077c-35.48-2.437-52.707,7.603-56.469,10.157c4.393,7.687,6.02,16.072,6.539,19.576
		C89.486,158.541,135.174,156.669,135.174,156.669z"/>
	<path fill="#B3B3B3" stroke="#000000" stroke-width="0.0826" d="M75.732,190.277c-0.021-0.004-0.043-0.007-0.064-0.011l0.096,0.119
		L75.732,190.277z"/>
	<path fill="#B3B3B3" d="M253.179,202.234c0,0-38.179,8.523-89.824,8.353c0,0-5.386,0.6-9.832-2.019
		c1.298,1.821,3.538,3.723,7.274,3.723c0,0,56.928,0.172,94.598-8.863c0,0,6.648-0.512,8.353-9.033l1.576-8.997
		c-1.198,0.204-1.917,0.306-1.917,0.306c-0.445,0.063-0.887,0.124-1.331,0.187l-1.567,7.993
		C260.508,193.883,259.826,200.7,253.179,202.234z"/>
	<path fill="#333333" d="M86.652,204.394c17.5,4.376,48.521,3.977,48.521,3.977c6.762,0,4.772-7.159,4.772-7.159l-1.305-6.85
		c-28.729,0.385-49.696-2.017-60.919-3.765l1.921,6.588C82.029,204.343,86.652,204.394,86.652,204.394z"/>
	<path fill="#333333" d="M153.522,208.568c4.446,2.618,9.832,2.019,9.832,2.019c51.646,0.171,89.824-8.353,89.824-8.353
		c6.647-1.534,7.329-8.352,7.329-8.352l1.567-7.993c-35.483,5.005-66.948,6.889-112.897,8.229l2.758,11.187
		C151.936,205.305,152.334,206.902,153.522,208.568z"/>
	<path fill="#FFFFFF" d="M268.689,152.976c0,0,6.291,0.992,13.373-0.934c-2.094-8.124-5.963-17.113-13.061-24.604
		c0,0-0.203-0.271-0.695-0.754c-3.398-0.167-7.857-0.426-10.068-0.558C260.39,129.409,267.396,140.889,268.689,152.976z"/>
	<path fill="#333333" d="M266.133,195.248c0,0-0.272,1.208,0.334,2.098l8.188-2.779c2.703-1.114,4.025-2.632,4.676-3.938
		l-0.385-8.108l1.15-0.769c-4.385,1.535-9.209,2.606-12.538,3.242L266.133,195.248z"/>
	<path fill="#808080" d="M261.189,183.852c-27.441,3.75-103.631,7.159-103.631,7.159c-41.759,1.933-70.523-1.606-83.761-3.836
		l0.128,0.913l1.742,2.179c0.021,0.004,0.043,0.007,0.064,0.011l0,0c0.626,0.104,1.287,0.209,1.99,0.319l0,0
		c11.223,1.748,32.189,4.149,60.919,3.765l0,0c1.333-0.019,9.304-0.208,10.536-0.243l0,0c45.949-1.34,77.414-3.224,112.897-8.229
		l0,0c0.444-0.062,4.628-0.733,5.482-0.896l0,0c3.329-0.636,8.153-1.707,12.538-3.242l1.234-0.822c0,0,1.616-0.814,2.521-3.871
		C276.096,182.532,261.189,183.852,261.189,183.852z"/>
	<path fill="#B3B3B3" d="M274.654,194.566l-8.188,2.779c0.461,0.677,1.428,1.168,3.416,0.799c0,0,6.957-0.672,10.203-5.215
		c-0.115-0.646-0.346-1.335-0.744-2.059l-0.012-0.243C278.68,191.935,277.357,193.452,274.654,194.566z"/>
	<path fill="#D1D3D4" d="M135.498,137.977l7.158,16.703c0,0,5.171,10.339,25.852,9.942c0,0,61.572-0.469,80.393-3.294
		c13.636-2.047,12.785-10.227,11.932-13.977c0,0-2.557-11.703-4.943-13.295c0,0-2.046-4.262-15.681-5.284
		c0,0-45.055-3.92-95.563,0.852C144.645,129.624,132.316,129.624,135.498,137.977z"/>
	<path fill="#9BCC5E" d="M175.119,170.842l69.351-3.529c0,0,3.579-0.001,3.579,3.182v9.942c0,0,0,3.578-3.182,4.375l-67.611,5.568
		c0,0-4.771,1.194-5.17-5.17l0.051-11.087C172.137,174.123,172.137,171.141,175.119,170.842z"/>
	<path fill="#6D6F71" d="M255.207,136.613c0,0,2.896,8.011,3.066,11.59c0,0,2.558,8.012-8.351,9.547c0,0-56.075,5.452-86.927,3.067
		c0,0-12.785,0.168-17.557-9.375l-5.284-11.079c0,0-4.091-7.67,5.454-8.353c0,0,68.351-4.261,97.838-0.511
		C243.447,131.5,253.16,131.841,255.207,136.613z"/>
	<path fill="#292929" d="M43.027,136.385c-1.417,0-2.438,1.761-3.172,4.483c-1.357,5.038-1.729,13.373-1.781,20.002
		c-0.044,5.688,0.145,10.116,0.145,10.116l0.027,0.048c0.043-1.548,0.096-2.903,0.147-4.046c0.114-2.505,0.224-3.957,0.224-3.957
		c0.835-8.519,2.441-13.521,4.025-16.469c2.186-4.069,4.326-4.212,4.326-4.212l0.613,1.122
		C44.892,136.71,43.027,136.385,43.027,136.385z"/>
	<path d="M86.739,220.699v-4.207c-5.437-0.863-9.099-1.644-10.874-2.053c-0.393-0.091-0.693-0.162-0.9-0.214
		c-0.229-0.056-0.355-0.089-0.355-0.089c-4.846-1.179-9.451-3.288-13.759-5.909c-0.577-0.352-1.151-0.709-1.717-1.077
		c-1.556-15.361-3.214-27.393-4.854-36.81c-2.402-13.806-4.765-22.005-6.698-26.868l-0.613-1.122c0,0-2.141,0.143-4.326,4.212
		c-1.584,2.947-3.19,7.95-4.025,16.469c0,0-0.109,1.452-0.224,3.957c-0.052,1.143-0.104,2.498-0.147,4.046
		c-0.129,4.608-0.174,10.854,0.127,17.765c0.408,9.407,1.459,20.053,3.824,29.514c0,0,1.59,7.16,4.374,8.751
		c0,0,1.592,1.192,7.954,1.192h26.646C81.172,228.256,87.139,227.459,86.739,220.699z"/>
	<ellipse fill="#CCCCCC" cx="43.809" cy="184.186" rx="4.547" ry="30.383"/>
	<path fill="#B3B3B3" d="M75.846,190.488l-0.082-0.103l2.986,10.378c0,0,1.192,5.519,7.158,6.264c0,0,27.739,4.922,53.393,3.431
		c0,0,6.114-0.298,4.92-8.5l-1.532-7.669c-1.366,0.03-2.714,0.054-4.047,0.072l1.305,6.85c0,0,1.989,7.159-4.772,7.159
		c0,0-31.021,0.399-48.521-3.977c0,0-4.623-0.051-7.009-7.209l-1.921-6.588c-0.703-0.11-1.364-0.216-1.99-0.319l0.031,0.108
		L75.846,190.488z"/>
	<path fill="#333333" d="M18.992,132.409c-0.271-1.192-0.525-1.266-0.725-0.98c-0.047,0.923-0.098,2.168-0.131,3.65
		c-0.058,2.561-0.06,5.827,0.108,9.388c0.132-1.739,0.286-3.292,0.462-4.615c0.256-1.943,0.553-3.391,0.877-4.185
		C19.234,133.386,18.992,132.409,18.992,132.409z"/>
	<path fill="#DBDBDB" d="M21.303,153.492c-0.361-5.962-0.783-10.453-1.17-13.722c-0.177-0.646-0.366-1-0.562-1
		c-0.275,0-0.535,0.679-0.768,1.886c-0.203,1.052-0.385,2.508-0.536,4.271c-0.009-0.154-0.015-0.306-0.021-0.46
		c-0.255,3.376-0.419,7.449-0.457,11.871c0,0.035-0.001,0.069-0.001,0.104c-0.002,0.278-0.004,0.558-0.006,0.84
		c-0.001,0.357-0.002,0.715-0.002,1.075c0,0.361,0.001,0.721,0.002,1.077c0.002,0.281,0.004,0.562,0.006,0.841
		c0,0.033,0.001,0.068,0.001,0.104c0.093,9.868,0.854,17.566,1.782,17.566c0.826,0,1.521-6.143,1.727-14.486
		c0.014-0.534,0.023-1.077,0.033-1.628c0.018-1.129,0.029-2.286,0.029-3.474C21.359,156.678,21.34,155.048,21.303,153.492z"/>
	<path d="M22.85,167.208c-0.367-0.727-0.704-1.497-1.019-2.296c-0.038-1.121-0.077-2.213-0.12-3.265
		c-0.066-1.639-0.139-3.191-0.214-4.67c-0.062-1.212-0.128-2.377-0.194-3.485c0.037,1.556,0.057,3.186,0.057,4.865
		c0,1.188-0.012,2.345-0.029,3.474c-0.01,0.551-0.02,1.094-0.033,1.628c-0.205,8.344-0.9,14.486-1.727,14.486
		c-0.928,0-1.689-7.698-1.782-17.566c0.104,11.976,1.128,21.378,2.378,21.378c0,0,1.904,0.513,12.422,0.561
		C26.887,174.702,22.85,167.208,22.85,167.208z"/>
	<path fill="#1A1A1A" d="M21.303,153.492c-0.15-6.464-0.596-11.636-1.17-13.722C20.52,143.039,20.941,147.53,21.303,153.492z"/>
	<path fill="#1A1A1A" d="M18.707,139.852c-0.176,1.323-0.33,2.876-0.462,4.615c0.007,0.154,0.013,0.306,0.021,0.46
		c0.151-1.763,0.333-3.219,0.536-4.271c0.232-1.207,0.492-1.886,0.768-1.886c0.196,0,0.386,0.354,0.562,1
		c-0.197-1.68-0.385-3.035-0.549-4.104C19.26,136.461,18.963,137.908,18.707,139.852z"/>
	<path fill="#E6E6E6" d="M51.684,105.961l2.485-21.179c0,0,0.177-1.244,0.146-2.555c-0.552,1.356-5.494,13.525-9.238,24.18
		C48.886,106.068,51.684,105.961,51.684,105.961z"/>
	<path fill="#E6E6E6" d="M54.104,80.503c-0.477-1.747-1.896-2.339-5.729,2.67c-0.255,0.405-0.511,0.822-0.767,1.262
		c0,0-3.729,6.115-5.966,11.932c0,0-2.668,6.939-3.587,10.844c2.098-0.303,4.182-0.537,6.072-0.717
		C47.553,95.154,52.706,83.57,54.104,80.503z"/>
	<path fill="#B3B3B3" d="M45.076,106.407c3.744-10.654,8.687-22.823,9.238-24.18c-0.014-0.6-0.07-1.211-0.211-1.725
		c-1.397,3.067-6.551,14.651-9.977,25.99C44.45,106.463,44.766,106.435,45.076,106.407z"/>
	<g>
		<path fill="#666666" d="M40.747,109.747v-3.055c-0.245,0.051-0.398,0.064-0.398,0.064l-3.977,0.094v7.441
			C37.842,112.319,39.332,110.844,40.747,109.747z"/>
		<path fill="#666666" d="M40.747,106.692L40.747,106.692c1.065-0.218,3.883-1.115,3.479-4.51c0,0,0.299-7.855-9.346-6.96
			c0,0-8.152-0.1-10.439,4.674c0,0-3.381,6.461,3.379,7.158l8.552-0.204l0,0C36.372,106.851,40.502,106.743,40.747,106.692z"/>
	</g>
	<path fill="#808080" d="M75.943,190.076l-1.988-1.988l-4.375-31.022c0,0-1.273-14.008-8.957-24.703c0,0,7.48,8.27,9.874,24.703
		c2.394,16.435,4.147,30.795,4.147,30.795L75.943,190.076z"/>
</g>
</svg>
