<?xml version="1.0" encoding="utf-8"?>
<!-- Generator: Adobe Illustrator 13.0.0, SVG Export Plug-In . SVG Version: 6.00 Build 14948)  -->
<!DOCTYPE svg PUBLIC "-//W3C//DTD SVG 1.1//EN" "http://www.w3.org/Graphics/SVG/1.1/DTD/svg11.dtd">
<svg version="1.1" id="Created_By_Vectorportal.com"
	 xmlns="http://www.w3.org/2000/svg" xmlns:xlink="http://www.w3.org/1999/xlink" x="0px" y="0px" width="649.204px"
	 height="686.616px" viewBox="0 0 649.204 686.616" enable-background="new 0 0 649.204 686.616" xml:space="preserve">
<g>
	<path fill="#9BCC5E" d="M511.593,135.995c-13.328-11.048-27.652-20.928-42.808-29.512c-0.708,0.792-1.498,1.645-2.216,2.331
		c-2.284,2.305-4.729,4.342-7.217,6.196c-4.969,3.704-10.134,6.536-15.174,9.024c-5.058,2.474-10.026,4.53-14.819,6.427
		c-1.087,0.438-2.146,0.827-3.221,1.246c-2.427,2.881-4.2,6.863-5.479,11.065c-1.382,4.668-2.255,9.65-2.813,14.708
		c-1.055,9.393-1.141,19.042-0.839,28.696c5.008-4.109,10.24-8.128,15.696-12.019C458.571,155.732,486.348,142.444,511.593,135.995"
		/>
	<path fill="#9BCC5E" d="M152.877,413.606c-13.866-3.471-25.024-11.998-33.365-25.538l-2.613-4.234l4.389-2.334
		c18.685-9.95,48.259-12.798,72.566,9.962l11.773-7.623c-0.252-1.438-0.512-2.872-0.708-4.33
		c-13.368-1.137-25.461-12.699-28.634-28.683c-2.155-10.825,0.252-21.328,5.72-28.901c-28.435-8.001-61.469-23.38-93.308-43.948
		c-13.489-8.717-25.562-17.203-36.341-25.518c-13.678,33.868-21.229,70.847-21.229,109.558c0,42.182,8.96,82.305,25.056,118.59
		l75.804-49.085C137.219,424.529,144.175,418.149,152.877,413.606"/>
	<path fill="#9BCC5E" d="M579.829,217.284c-14.216,24.57-37.726,49.26-66.635,69.855c-21.178,15.084-43.636,26.724-64.935,33.982
		c5.902,7.613,8.575,18.478,6.343,29.705c-3.001,15.158-14.035,26.333-26.563,28.418c-0.371,2.809-0.862,5.579-1.442,8.316
		l164.611,97.061c17.234-37.33,26.871-78.861,26.871-122.604C618.079,309.422,604.159,260.02,579.829,217.284"/>
	<path fill="#9BCC5E" d="M208.561,206.392c-0.017-2.926-0.108-5.852-0.202-8.778c-0.14-2.925-0.295-5.85-0.499-8.761
		c-0.217-2.924-0.466-5.85-0.777-8.76c-0.295-2.925-0.639-5.836-1.027-8.748c-0.39-2.895-0.84-5.805-1.322-8.684
		c-0.98-5.788-2.147-11.531-3.549-17.195c-0.701-2.833-1.464-5.649-2.303-8.435c-0.825-2.786-1.711-5.542-2.724-8.25
		c-0.981-2.706-2.085-5.354-3.252-7.921c-0.421-0.885-0.842-1.712-1.246-2.521c-2.77-1.525-5.587-3.095-8.48-4.747
		c-2.456-1.396-4.947-2.855-7.453-4.391c-21.794,12.883-41.789,28.494-59.504,46.375c12.438,6.254,25.027,13.463,37.608,21.591
		c20.47,13.225,38.938,27.527,54.495,41.922c0.061-1.315,0.113-2.632,0.143-3.953C208.561,212.228,208.575,209.302,208.561,206.392"
		/>
	<path fill="#9BCC5E" d="M234.853,428.873l-0.218,0.161c13.165,15.7,31.397,27.256,52.205,33.453
		C266.149,456.324,248.005,444.648,234.853,428.873"/>
	<path fill="#9BCC5E" d="M373.533,324.262c0.26-0.032,0.511-0.077,0.767-0.115c-0.131-0.062-0.272-0.113-0.403-0.177
		C373.783,324.073,373.65,324.163,373.533,324.262"/>
	<path fill="#9BCC5E" d="M417.116,330.892v0.047l1.851,11.561c-0.004-0.113-0.023-0.252-0.027-0.359l-1.823-11.201V330.892
		c0,0-0.149-0.799-0.431-2.184c-0.025,0.003-0.004,0.006-0.03,0.01C416.937,330.097,417.116,330.892,417.116,330.892"/>
	<path fill="#9BCC5E" d="M213.791,327.858c-0.305,1.923-0.436,3.033-0.436,3.033s0.233-1.105,0.708-3.01
		C213.974,327.875,213.881,327.865,213.791,327.858"/>
	<path fill="#9BCC5E" d="M213.063,374.374l0.02,0.822c0.081,1.214,0.191,2.416,0.314,3.61l0.064-0.041
		C213.299,377.314,213.162,375.851,213.063,374.374"/>
	<polygon fill="#9BCC5E" points="418.906,342.149 419.452,345.632 419.379,345.069 	"/>
	<path fill="#9BCC5E" d="M130.786,207.489c21.035,12.61,41.061,24.615,47.434,28.246c2.755-3.298,2.612-4.062,2.497-4.22
		c-6.876-9.43-49.274-34.887-83.299-55.067c-2.024,2.474-4,4.983-5.942,7.521C102.269,190.407,115.224,198.157,130.786,207.489"/>
	<path fill="#9BCC5E" d="M149.947,278.09c0.642-0.859,1.53-2.236,2.18-3.242c0.105-0.164,0.212-0.33,0.32-0.495
		c-8.592-5.95-42.811-27.369-70.862-44.929c-5.067-3.172-9.744-6.097-14.075-8.812c-1.47,2.664-2.913,5.346-4.303,8.06
		C95.507,249.8,133.94,273.562,149.947,278.09"/>
	<path fill="#9BCC5E" d="M419.478,363.293c0-2.755,0.049-5.711,0.005-8.669c0-0.065-0.008-0.147-0.008-0.214
		c0,0.071,0.003,0.143,0.003,0.214C419.523,357.582,419.478,360.538,419.478,363.293"/>
	<path fill="#9BCC5E" d="M83.428,208.431c32.69,19.021,72.717,42.31,81.735,47.055c0.65-0.656,1.882-1.925,2.222-2.666
		c-5.997-5.691-41.8-27.037-73.43-45.894c-4.774-2.847-9.165-5.467-13.271-7.925c-1.258,1.877-2.498,3.766-3.711,5.674
		C79.099,205.913,81.25,207.166,83.428,208.431"/>
	<path d="M649.204,362.017c0-67.283-20.581-129.849-55.775-181.737c1.46-11.982-0.706-22.46-6.611-30.75
		c-6.876-9.653-18.254-15.549-33.213-17.341c-21.141-21.065-45.17-39.228-71.422-53.868c0.883-5.377,1.045-10.898,0.493-16.364
		c-1.46-13.913-7.392-27.343-16.648-37.987c-4.605-5.337-10.008-10.038-16.032-13.709c-6.005-3.706-12.575-6.46-19.309-8.17
		c-13.559-3.379-27.548-2.43-39.78,1.212c-1.557,0.436-3.035,0.936-4.56,1.449c-1.525,0.543-3.145,1.104-4.42,1.632l-2.132,0.872
		l-2.085,0.965c-1.401,0.606-2.74,1.292-4.095,1.978c-5.353,2.706-10.348,5.725-14.986,8.886c-4.637,3.142-8.948,6.395-12.994,9.616
		c-3.804,3.03-7.381,6.013-10.798,8.894c-3.399-0.106-6.809-0.178-10.234-0.178c-19.02,0-37.653,1.66-55.784,4.814
		c-0.231-0.227-0.455-0.448-0.685-0.675c-3.735-3.688-7.61-7.517-11.781-11.33c-4.17-3.844-8.604-7.702-13.555-11.298
		c-1.214-0.918-2.491-1.788-3.798-2.661c-1.26-0.887-2.614-1.712-3.983-2.537c-2.708-1.635-5.571-3.098-8.809-4.529l-0.591-0.265
		l-0.529-0.218l-1.027-0.403l-2.07-0.811l-2.613-0.87c-0.809-0.282-1.636-0.484-2.459-0.716c-3.3-0.889-6.739-1.494-10.24-1.761
		c-7.004-0.56-14.302,0.343-21.072,2.755c-6.786,2.365-12.947,6.241-18.146,10.942c-10.38,9.476-17.181,22.035-19.889,35.325
		c-1.338,6.646-1.681,13.556-0.56,20.325c0.767,4.832,2.333,9.593,4.642,13.948c-24.234,15.318-46.305,33.752-65.651,54.736
		c-12.104-4.618-23.914-8.21-35.247-10.664l-0.654-0.07c-2.024,0-5.562,2.853-6.54,5.879c-0.459,1.424-1.049,5.083,3.429,8.317
		c4.462,3.223,12.876,8.422,23.414,14.743c-1.991,2.502-3.955,5.025-5.87,7.585c-22.889-13.477-26.588-15.222-27.921-15.222
		l-0.814,0.009l-0.683,0.358c-3.959,2.089-7.216,7.546-6.704,11.23c0.311,2.249,3.065,4.78,25.608,18.568
		c-1.343,2.024-2.665,4.059-3.966,6.115c-13.521-7.837-23.102-13.332-25.095-14.303c-0.712-0.347-1.469-0.523-2.251-0.523
		c-1.293,0-3.257,0.5-5.275,2.868c-1.834,2.149-3.568,5.744-3.18,8.176c0.256,1.589,0.332,2.058,26.872,18.793
		c-1.354,2.417-2.677,4.853-3.969,7.306c-14.912-10.059-25.158-17.212-25.492-17.447l-1.9-1.328l-1.816,1.438
		c-3.634,2.876-6.859,7.598-3.996,11.431c6.382,8.544,14.201,17.172,23.521,25.95C9.825,271.39,0,315.573,0,362.017
		c0,48.417,10.675,94.383,29.764,135.694l-7.037,4.557c-8.012,5.708-0.448,30.191,4.133,36.622l4.086,5.734
		c4.396,6.175,19.075,14.764,27.502,14.764c2.106,0,3.869-0.495,5.311-1.522l1.369-1.033h0.002
		c59.283,78.759,153.527,129.784,259.474,129.784c106.115,0,200.498-51.185,259.764-130.16c9.076-0.15,21.35-9.949,25.553-16.456
		l4.373-6.769c4.562-7.062,8.036-23.356,3.281-31.524C637.839,459.373,649.204,411.999,649.204,362.017 M618.079,362.017
		c0,43.743-9.637,85.274-26.873,122.604l-164.609-97.061c0.58-2.737,1.071-5.508,1.442-8.316
		c12.528-2.085,23.561-13.26,26.563-28.419c2.232-11.227-0.438-22.091-6.342-29.704c21.297-7.258,43.756-18.897,64.934-33.982
		c28.909-20.596,52.419-45.285,66.637-69.855C604.159,260.02,618.079,309.422,618.079,362.017 M431.166,338.283
		c-4.965-7.221-11.129-7.594-13.319-7.485c2.124-0.339,7.991-2.108,12.456-11.064c0.134,0.034,0.268,0.068,0.398,0.105l-0.063,0.33
		c1.301,0.258,2.535,0.68,3.705,1.227c8.17,4.665,13.396,16.08,11.108,27.61c-2.195,11.035-9.803,19.265-18.362,20.947
		c0.016,0.124-0.653,0-0.653,0c0-2.147-0.403-4.622-0.917-7.221c-0.314-1.587-0.484-3.253-0.812-4.948
		c0.049-0.032,0.109-0.048,0.159-0.062C431.479,354.096,435.086,344.011,431.166,338.283 M454.588,623.06
		c-40.674,19.21-86.415,31.621-116.524,31.621c-0.978,0-1.935-0.014-2.869-0.041c43.764-45.691,65.698-98.296,88.852-153.825
		c5.747-13.772,11.666-27.976,17.996-42.221c65.873,21.834,106.702,71.173,115.525,82.67
		C538.315,571.764,501.894,600.717,454.588,623.06 M203.113,400.533c4.934,0,8.948,4.016,8.948,8.949
		c0,4.933-4.015,8.948-8.948,8.948c-4.933,0-8.948-4.016-8.948-8.948C194.165,404.549,198.181,400.533,203.113,400.533
		 M205.446,391.368l1.529-0.989c0.104,0.436,0.182,0.881,0.293,1.315C206.673,391.557,206.063,391.451,205.446,391.368
		 M200.105,458.89c18.597,58.118,58.22,138.227,116.595,198.541c-53.862-1.365-171.501-35.592-230.898-115.595
		C95.206,530.058,136.229,482.296,200.105,458.89 M324.626,625.319c-75.167-69.814-111.568-167.033-114.447-179.717
		c0.39-3.035,4.186-14.256,8.497-25.85c4.28,7.408,9.369,14.269,15.188,20.48c0.856,2.055,1.729,4.124,2.601,6.162
		c0.091,0.234,0.186,0.452,0.279,0.686c1.478,3.455,3.004,6.879,4.56,10.284c1.557,3.411,3.051,6.85,4.699,10.227
		c1.62,3.377,3.191,6.786,4.872,10.131l5.011,10.086l5.245,9.976c1.727,3.33,3.595,6.599,5.383,9.896l2.724,4.932l2.865,4.874
		c1.928,3.221,3.798,6.489,5.773,9.694l6.006,9.587c1.978,3.205,4.188,6.287,6.304,9.415l3.205,4.669l3.395,4.576
		c2.287,3.019,4.404,6.147,6.894,9.041c2.443,2.926,4.763,5.945,7.312,8.793l7.923,8.373l3.16,3.33l3.252-3.237l3.547-3.532
		l3.316-3.704c2.115-2.521,4.17-5.089,6.068-7.736c0.996-1.289,1.898-2.644,2.817-3.982c0.934-1.339,1.836-2.676,2.677-4.062
		c1.759-2.723,3.393-5.492,5.025-8.277c1.573-2.805,3.16-5.587,4.639-8.436c1.524-2.833,2.941-5.696,4.39-8.559
		c2.754-5.774,5.353-11.595,7.843-17.463c1.229-2.956,2.458-5.881,3.625-8.854c1.184-2.957,2.272-5.945,3.394-8.918
		c2.178-5.976,4.325-11.951,6.256-18.005c0.979-3.034,1.93-6.055,2.863-9.089c0.935-3.034,1.837-6.084,2.678-9.134
		c1.027-3.611,1.991-7.223,2.91-10.849c11.718-9.431,21.505-21.149,28.647-34.502l10.414,21.388
		C413.768,511.7,367.298,579.892,324.626,625.319 M336.359,474.362c18.302-3.253,35.125-10.894,49.271-21.819
		c-1.152,2.877-2.272,5.774-3.424,8.654c-2.412,5.851-4.764,11.702-7.268,17.491l-3.751,8.697c-1.26,2.896-2.536,5.773-3.828,8.64
		c-2.646,5.727-5.292,11.423-8.016,17.087c-1.385,2.818-2.754,5.634-4.218,8.42c-1.399,2.801-2.91,5.538-4.372,8.31
		c-1.494,2.739-2.957,5.51-4.528,8.202c-1.526,2.724-3.16,5.367-4.762,8.028c-1.65,2.632-3.316,5.246-5.074,7.799
		c-0.841,1.292-1.759,2.537-2.645,3.781c-0.903,1.26-1.775,2.521-2.724,3.719c-1.838,2.459-3.783,4.811-5.76,7.098l-2.972,3.222
		l-4.326-4.623c-2.412-2.724-4.715-5.602-7.098-8.388c-2.41-2.755-4.513-5.806-6.784-8.716l-3.332-4.402l-3.188-4.548
		c-2.102-3.05-4.279-6.02-6.364-9.102l-6.194-9.243c-2.055-3.082-3.985-6.257-5.991-9.385c-2.009-3.128-3.97-6.287-5.915-9.462
		s-3.968-6.303-5.852-9.51l-5.711-9.602l-5.666-9.649c-1.913-3.205-3.719-6.473-5.586-9.694l-5.557-9.727l-5.492-9.773
		c-0.095-0.174-0.188-0.342-0.28-0.514c15.748,14.831,35.778,25.181,57.938,29.055l19.142,45.567l20.652-45.146L336.359,474.362z
		 M419.479,363.293c-0.017,2.77-0.156,5.322-0.201,7.5c-0.048,2.194-0.284,3.765-0.345,5.013c-0.055,0.599-0.09,1.028-0.114,1.318
		c-5.353,40.758-34.964,74.486-73.651,85.598c1.945-2.816,3.3-5.4,4.031-7.393c0.436-1.167,0.638-2.147,0.73-2.816
		c0.095-0.67,0.032-1.012,0.062-1.012c0,0-0.03,0.077-0.093,0.249c-4.293,6.139-16.588,13.701-19.485,14.099l-13.959-19.981
		l-14.894,19.874c-7.845-2.229-19.671-13.275-19.671-13.275s0.031,0.093,0.046,0.265c0.032,0.172,0.095,0.418,0.188,0.744
		c0.186,0.641,0.497,1.59,1.027,2.71c0.778,1.729,1.991,3.904,3.688,6.301c-20.807-6.195-39.039-17.751-52.203-33.45l0.217-0.162
		c-1.329-1.596-2.616-3.224-3.84-4.9l-0.222,0.168c-8.16-11.138-13.89-24.105-16.434-38.542l0.104-0.069
		c-0.408-2.223-0.746-4.477-1.001-6.764l-0.064,0.041c-0.124-1.194-0.233-2.396-0.315-3.61l-0.019-0.822l-0.067-2.896
		c-0.017-0.234-0.031-0.451-0.031-0.686c-0.062-2.178-0.202-4.73-0.202-7.5c0-2.755-0.062-5.711-0.016-8.669
		c0.093-11.843,0.606-23.732,0.606-23.732s-7.983-1.557-14.131,7.392c-4.265,6.194,0.327,17.537,7.999,20.201
		c-0.28,1.447-0.544,2.879-0.824,4.263c-0.528,2.661-0.888,5.215-1.261,7.393c-9.104-1.043-17.384-9.524-19.703-21.134
		c-2.724-13.743,3.923-26.674,14.832-28.837l-0.032-0.142c6.21,8.811,13.12,10.864,13.12,10.864s0.134-1.109,0.437-3.033
		c0.091,0.008,0.186,0.016,0.273,0.021c0.389-1.56,0.942-3.662,1.662-6.141c-0.276-0.016-0.548-0.025-0.825-0.043
		c2.8-14.012,9.879-40.127,24.979-49.942c1.588,0.472,3.391,1.081,5.271,1.731c0.008,0.014,0.014,0.027,0.022,0.042
		c0.186,0.054,0.374,0.105,0.56,0.16c4.301,1.491,8.973,3.15,12.628,3.903c8.948,1.852,19.546,2.801,28.589,3.659
		c9.042,0.87,18.099,1.306,27.14,1.354c18.101,0.076,36.183-1.325,54.127-4.467c6.21-1.105,14.577-4.329,20.74-5.993
		c14.941,10.641,23.048,36.974,26.349,50.474c-0.021,0.001-0.041,0.004-0.064,0.006c0.625,2.561,1.075,4.655,1.362,6.093
		c0.025-0.002,0.058-0.005,0.083-0.008c0.283,1.386,0.431,2.184,0.431,2.184v0.047l1.798,11.2c0.001,0.108,0.003,0.247,0.009,0.36
		c0.099,3.07,0.51,8.715,0.557,11.911c0,0.066,0.005,0.148,0.005,0.214C419.528,357.582,419.479,360.538,419.479,363.293
		 M418.908,342.149l0.47,2.919l0.072,0.563L418.908,342.149z M581.747,153.142c20.202,28.354-12.173,86.191-72.165,128.927
		c-21.672,15.439-44.644,27.169-66.169,34.131c-2.877-2.284-6.174-3.982-9.819-4.886c0.658-4.893,0.156-9.8-1.068-14.572
		c2.522-0.81,5.358-1.819,8.572-2.993c1.805-0.703,3.721-1.453,5.747-2.242c1.992-0.845,4.091-1.732,6.279-2.66
		c4.33-1.933,8.986-4.085,13.798-6.561c4.839-2.42,9.813-5.208,14.906-8.142c5.055-3.007,10.237-6.169,15.339-9.624
		c5.131-3.41,10.215-7.049,15.177-10.843c4.991-3.753,9.787-7.762,14.431-11.769c4.618-4.05,9.015-8.191,13.129-12.34
		c4.07-4.192,7.92-8.317,11.314-12.456c3.452-4.085,6.472-8.149,9.131-11.972c2.611-3.862,4.89-7.475,6.672-10.812
		c0.918-1.652,1.751-3.21,2.431-4.7c0.7-1.473,1.38-2.809,1.861-4.076c0.517-1.248,0.979-2.364,1.377-3.335
		c0.345-0.993,0.632-1.837,0.871-2.521c0.467-1.366,0.719-2.095,0.719-2.095s-0.308,0.707-0.885,2.033
		c-0.284,0.658-0.642,1.475-1.058,2.433c-0.473,0.932-1.019,2.001-1.625,3.199c-0.579,1.211-1.356,2.482-2.164,3.883
		c-0.781,1.414-1.727,2.884-2.758,4.44c-2.013,3.141-4.532,6.518-7.39,10.096c-2.905,3.543-6.172,7.28-9.863,11.008
		c-3.629,3.78-7.718,7.514-12.005,11.283c-4.329,3.729-8.935,7.422-13.737,11.009c-4.831,3.543-9.793,7.065-14.926,10.327
		c-5.107,3.299-10.31,6.437-15.533,9.339c-5.194,2.949-10.435,5.604-15.521,8.109c-5.125,2.434-10.099,4.729-14.901,6.673
		c-4.778,2.001-9.363,3.692-13.605,5.198c-2.13,0.71-4.172,1.39-6.115,2.036c-1.953,0.59-3.806,1.15-5.547,1.675
		c-3.502,0.97-6.562,1.8-9.005,2.342c-0.215,0.055-0.412,0.096-0.619,0.146c-5.635-10.859-13.104-19.939-15.76-24.888l11.13-11.426
		c-0.686-5.228-2.245-21.434-2.833-26.664c-0.95-8.611-1.702-17.235-2.19-25.833c5.979-5.101,12.303-10.058,18.945-14.792
		c36.395-25.924,76.451-41.403,107.161-41.403C561.375,137.824,574.61,143.123,581.747,153.142 M511.592,135.996
		c-25.242,6.448-53.021,19.735-78.888,38.161c-5.456,3.889-10.687,7.909-15.696,12.02c-0.301-9.654-0.217-19.304,0.839-28.697
		c0.559-5.058,1.432-10.038,2.815-14.707c1.276-4.202,3.05-8.186,5.476-11.064c1.076-0.42,2.134-0.81,3.222-1.246
		c4.793-1.898,9.762-3.953,14.819-6.427c5.038-2.49,10.205-5.322,15.174-9.026c2.487-1.853,4.933-3.891,7.219-6.195
		c0.716-0.688,1.506-1.54,2.214-2.331C483.942,115.066,498.265,124.948,511.592,135.996 M161.748,56.229
		c2.366-10.225,8.014-20.107,15.874-27.001c3.937-3.424,8.373-6.116,13.104-7.749c4.731-1.651,9.742-2.258,14.737-1.838
		c2.506,0.202,4.996,0.653,7.47,1.292c0.608,0.187,1.231,0.327,1.836,0.529l0.92,0.296l0.466,0.141l0.219,0.077l0.125,0.031
		c0.03,0.016,0.016,0.016,0.03,0.016l1.931,0.747l1.042,0.389l0.514,0.204l0.42,0.186c2.147,0.964,4.544,2.131,6.833,3.471
		c1.15,0.653,2.302,1.307,3.422,2.038c1.137,0.701,2.242,1.434,3.347,2.195c8.809,6.118,16.964,13.4,24.994,20.231
		c7.982,6.878,15.952,13.306,23.841,18.581c7.89,5.276,15.702,9.369,22.923,12.14c7.253,2.723,13.773,4.419,19.204,5.197
		c1.355,0.22,2.646,0.343,3.86,0.498c1.199,0.156,2.319,0.28,3.392,0.327c2.117,0.093,3.891,0.249,5.354,0.202
		c2.91,0,4.451-0.062,4.451-0.062s-1.511-0.405-4.296-1.059c-2.786-0.731-6.832-1.898-11.78-3.672
		c-4.933-1.899-10.784-4.389-17.009-8.062c-3.86-2.272-7.876-4.948-11.985-8.014c0.593-0.125,1.184-0.265,1.79-0.42
		c2.754-0.685,5.791-1.572,8.979-2.799c3.176-1.278,6.553-2.818,10.055-4.624c7.019-3.609,14.473-8.389,22.316-13.695
		c3.891-2.615,7.953-5.338,12.153-8.155c4.202-2.739,8.544-5.509,13.058-8.108c4.529-2.583,9.229-5.042,14.131-7.19
		c2.459-1.074,4.949-2.054,7.532-2.957c1.417-0.545,2.567-0.854,3.813-1.276c1.26-0.374,2.582-0.746,3.874-1.072
		c10.46-2.647,21.647-3.113,32.152-0.267c10.52,2.708,20.216,8.777,27.516,17.119c7.282,8.326,12.216,18.817,13.617,29.554
		c1.495,10.724-0.699,21.538-6.133,30.207c-5.275,8.73-13.976,15.081-22.924,20.34c-8.993,5.229-18.27,9.493-26.75,13.743
		c-8.546,4.169-16.295,8.449-22.863,12.729c-6.598,4.264-11.812,8.839-15.702,12.901c-3.891,4.093-6.287,7.829-7.812,10.38
		c-0.764,1.292-1.277,2.305-1.604,2.988c-0.28,0.591-0.451,0.918-0.499,1.012c0.172-0.218,1.075-1.479,2.786-3.518
		c1.868-2.255,4.855-5.367,9.088-8.73c2.117-1.681,4.562-3.408,7.33-5.104c2.771-1.696,5.853-3.393,9.198-5.087
		c5.743-2.896,12.404-5.557,19.702-8.359c-0.313,0.794-0.622,1.587-0.903,2.366c-1.913,5.462-3.097,10.956-3.998,16.436
		c-1.727,10.97-2.242,21.863-2.352,32.711c-0.079,10.847,0.346,21.647,1.027,32.387c0.325,5.367,0.75,10.737,1.199,16.075
		l1.058,11.594c-1.711,1.185-3.719,2.303-5.771,3.332c-14.242,5.29-28.139,9.041-41.522,11.562c-15.268,2.38-30.845,3.47-46.36,3.41
		c-8.606-0.049-17.197-0.469-25.726-1.278c-8.544-0.809-17.011-2.07-25.336-3.797c-14.924-3.127-29.538-7.843-42.393-15.095
		l0.483-3.813c0.327-3.112,0.606-6.225,0.809-9.322c0.172-3.097,0.312-6.194,0.374-9.289c0.062-3.083,0.079-6.18,0-9.261
		c-0.046-3.082-0.171-6.147-0.327-9.213c-0.156-3.065-0.389-6.131-0.639-9.182c-0.279-3.05-0.575-6.101-0.933-9.151
		c-0.374-3.035-0.763-6.07-1.229-9.089c-0.451-3.034-0.95-6.052-1.511-9.057c-0.528-3.018-1.135-6.005-1.789-9.011
		c-1.291-5.976-2.785-11.921-4.528-17.819c-0.887-2.941-1.821-5.866-2.832-8.792c-0.902-2.537-1.853-5.072-2.895-7.595
		c1.042,0.623,2.117,1.246,3.128,1.852c7.688,4.686,14.442,9.385,20.06,14.084c5.603,4.7,10.271,9.135,13.881,13.043
		c3.627,3.873,6.335,7.095,8.155,9.305c1.618,2.008,2.568,3.19,2.754,3.408c-0.107-0.201-0.809-1.541-2.036-3.875
		c-1.448-2.488-3.486-6.241-6.584-10.691c-3.066-4.451-7.019-9.805-12.265-15.328c-5.213-5.557-11.593-11.456-19.095-17.089
		c-5.26-4-11.018-7.921-16.964-11.903c-0.124-0.173-0.232-0.359-0.356-0.514l-0.202,0.138c-2.319-1.556-4.653-3.113-7.019-4.7
		c-4.295-2.926-8.623-5.961-12.871-9.198c-1.043-0.809-2.085-1.634-3.159-2.457l-1.541-1.278l-0.794-0.654l-0.638-0.56l-0.794-0.7
		l-0.514-0.529c-0.342-0.327-0.73-0.763-1.12-1.182c-0.761-0.84-1.446-1.759-2.1-2.693C160.441,77.16,159.336,66.438,161.748,56.229
		 M175.726,109.202c2.506,1.535,4.997,2.995,7.453,4.391c2.894,1.651,5.711,3.221,8.48,4.747c0.404,0.809,0.825,1.636,1.246,2.521
		c1.167,2.568,2.271,5.215,3.252,7.921c1.013,2.708,1.898,5.464,2.724,8.25c0.839,2.786,1.602,5.601,2.303,8.435
		c1.401,5.664,2.568,11.407,3.549,17.195c0.482,2.879,0.933,5.79,1.322,8.684c0.389,2.912,0.732,5.822,1.027,8.748
		c0.312,2.911,0.561,5.836,0.777,8.76c0.204,2.912,0.359,5.836,0.499,8.761c0.094,2.926,0.186,5.852,0.202,8.778
		c0.015,2.91,0,5.836-0.093,8.746c-0.029,1.321-0.082,2.638-0.143,3.953c-15.557-14.396-34.025-28.697-54.495-41.922
		c-12.581-8.128-25.171-15.337-37.608-21.591C133.937,137.695,153.932,122.085,175.726,109.202 M97.418,176.447
		c34.024,20.18,76.423,45.637,83.299,55.067c0.115,0.159,0.258,0.922-2.497,4.22c-6.373-3.631-26.398-15.635-47.434-28.246
		c-15.562-9.332-28.516-17.082-39.311-23.52C93.418,181.431,95.395,178.921,97.418,176.447 M80.685,199.002
		c4.104,2.456,8.496,5.078,13.271,7.925c31.63,18.856,67.433,40.203,73.43,45.893c-0.339,0.74-1.569,2.009-2.225,2.666
		c-9.016-4.747-49.04-28.036-81.732-47.056c-2.178-1.265-4.329-2.518-6.457-3.755C78.187,202.768,79.427,200.879,80.685,199.002
		 M67.512,220.614c4.328,2.712,9.006,5.64,14.073,8.812c28.052,17.559,62.271,38.979,70.863,44.927
		c-0.107,0.165-0.216,0.332-0.321,0.496c-0.651,1.007-1.538,2.382-2.18,3.242c-16.007-4.527-54.441-28.29-86.74-49.418
		C64.597,225.958,66.039,223.278,67.512,220.614 M9.146,202.003c0.146-0.38,0.538-0.944,1.045-1.531
		c16,11.124,112.772,77.744,139.754,83.916l0.434-0.037h0.353c2.505,0,3.97-2.138,6.623-6.25c0.593-0.917,1.208-1.806,1.827-2.705
		l0.754-1.088l-0.27-1.286c-0.442-2.121-0.498-2.385-74.78-48.881c-27.119-16.976-57.571-36.034-64.162-40.647
		c0.453-1.069,1.31-2.416,1.97-2.929c4.757,2.499,30.456,17.453,57.604,33.247c83.486,48.574,83.951,48.515,85.599,48.563
		l1.688,0.036l0.92-1.421c0.12-0.16,0.566-0.608,0.892-0.934c1.917-1.919,7.002-7.014,2.576-11.458
		c-5.906-5.928-39.384-25.887-74.831-47.018c-26.961-16.075-57.359-34.197-62.453-38.664c0.298-0.974,1.187-2.501,2.295-3.528
		c8.854,4.43,57.682,33.703,90.603,53.441c50.01,29.98,50.022,29.983,51.469,29.974l1.866,0.119l0.857-1.724
		c0.106-0.162,0.52-0.647,0.82-0.999c2.131-2.492,6.56-7.674,3.147-12.352c-7.497-10.281-44.409-32.616-91.887-60.744
		c-19.524-11.567-36.385-21.557-43.226-26.5c-0.986-0.713-1.177-1.185-1.17-1.264c0.025-0.35,0.59-0.996,1.176-1.467
		c30.87,6.881,65.351,22.259,99.812,44.524c21.666,13.999,41.241,29.447,57.354,44.877c-0.145,1.747-0.301,3.488-0.489,5.217
		c-0.312,2.863-0.7,5.711-1.137,8.544l-0.716,4.219l8.934,6.141c-5.883,11.701-25.029,40.592-18.707,60.34
		c-3.333,1.062-6.341,2.812-8.973,5.062c-28.411-7.524-62.096-23.021-94.643-44.046C53.098,247.563,25.969,224.419,9.146,202.003
		 M31.125,362.017c0-38.712,7.552-75.689,21.231-109.559c10.778,8.315,22.852,16.801,36.341,25.518
		c31.839,20.57,64.873,35.95,93.308,43.949c-5.468,7.572-7.875,18.075-5.722,28.9c3.175,15.984,15.267,27.547,28.636,28.684
		c0.197,1.458,0.456,2.893,0.707,4.33l-11.772,7.623c-24.308-22.759-53.884-19.912-72.568-9.964l-4.387,2.335l2.613,4.235
		c8.341,13.54,19.499,22.067,33.365,25.538c-8.703,4.543-15.656,10.923-20.892,17.915l-75.804,49.085
		C40.089,444.321,31.125,404.198,31.125,362.017 M185.668,403.988c-24.791,5.522-42.952,0.109-55.262-16.466
		c16.044-6.582,38.827-6.802,57.783,11.425C187.115,400.472,186.244,402.167,185.668,403.988 M188.018,419.784
		c-15.359,21.756-33.008,30.207-53.736,25.679c7.857-15.658,25.133-30.938,51.821-29.305
		C186.616,417.45,187.255,418.664,188.018,419.784 M60.078,552.846c-0.104,0.074-0.532,0.317-1.631,0.317
		c-6.255,0-19.094-7.464-22.434-12.15l-4.085-5.734c-4.653-6.53-8.519-25.854-5.703-27.863l98.635-63.867
		c-0.506,1.118-0.986,2.235-1.412,3.347l-1.773,4.653l4.746,1.479c6.396,1.991,12.575,2.988,18.551,2.988
		c18.986,0,35.793-10.085,50.174-30.101c2.413,1.167,5.104,1.854,7.968,1.854c0.965,0,1.883-0.093,2.801-0.233
		c-3.678,6.653-8.702,14.956-8.735,17.819c-0.003,0.402,0.259,1.621,0.778,3.542l-2.221,1.674
		c-74.687,27.77-117.71,85.908-119.55,88.433l-1.983,2.724l0.217,0.307L60.078,552.846z M338.285,665.631l-1.71-1.651
		c-4.539-0.062-8.728-0.373-12.432-0.975c3.704,0.602,7.893,0.865,12.432,0.926l1.731,1.7H338.285z M609.063,529.854l-4.372,6.769
		c-3.763,5.822-14.605,13.622-20.543,13.622c-0.822,0-1.48-0.156-1.933-0.448l-13.513-8.891l-1.492,2.5
		c-0.562,0.935-1.139,1.863-1.726,2.79l-0.018-0.014c0.593-0.936,1.176-1.854,1.743-2.799l1.492-2.488l0.055-0.085l-1.729-2.468
		c-1.834-2.639-45.801-64.654-125.291-89.643c-2.576-1.226-4.862-2.287-6.805-3.161c0.431-2.297,0.842-4.59,1.229-6.877
		l-2.319-4.452l-12.265-29.708c1.339-3.455,2.497-7.002,3.488-10.62l186.172,109.773
		C615.525,506.427,613.509,522.976,609.063,529.854 M373.898,323.97c0.102,0.049,0.21,0.094,0.316,0.14
		c-0.196,0.031-0.398,0.055-0.597,0.082C373.713,324.118,373.811,324.049,373.898,323.97 M393.956,364.615
		c7.921,36.852-49.675,37.147-60.352,33.973c-10.677-3.159-16.278-20.418-16.278-20.418
		C337.667,362.577,384.013,396.939,393.956,364.615 M239.404,364.615c9.945,32.324,56.289-2.038,76.63,13.555
		c0,0-5.602,17.259-16.276,20.418C289.079,401.763,231.483,401.467,239.404,364.615 M395.685,315.531l0.356-0.716l-0.356-0.716
		c-3.627-7.019-15.034-11.734-28.387-11.734s-24.76,4.716-28.387,11.734l-0.374,0.716l0.374,0.716
		c0.048,0.079,0.095,0.142,0.14,0.218c-0.356,0.996-0.544,1.977-0.544,2.957c0,8.575,12.917,15.562,28.791,15.562
		s28.791-6.987,28.791-15.562c0-0.98-0.188-1.977-0.545-2.957C395.59,315.673,395.637,315.61,395.685,315.531 M342.179,314.941
		c2.921-4.451,10.141-8.012,18.895-9.09c-1.898,1.712-3.113,4.188-3.113,6.956c0,5.151,4.188,9.338,9.338,9.338
		c4.684,0,8.544-3.455,9.229-7.953c-0.654,0.39-1.417,0.623-2.226,0.623c-2.427,0-4.404-1.977-4.404-4.42
		c0-2.239,1.681-4.06,3.844-4.342c-0.077-0.077-0.155-0.14-0.218-0.202c0.357,0.046,0.701,0.095,1.059,0.156
		c0.109,0.015,0.219,0.03,0.326,0.046c0.125,0.016,0.249,0.031,0.358,0.046c7.963,1.28,14.423,4.686,17.152,8.842
		c0.029,0.044,0.062,0.087,0.092,0.131c-1.538,2.417-4.349,4.556-7.986,6.193c-0.182-0.048-0.373,0.17-0.552,0.12
		c-2.847,1.174-6.165,2.147-9.757,2.724c0.028,0.011,0.058,0.023,0.086,0.037c-0.257,0.037-0.509,0.083-0.769,0.115
		c0.028-0.023,0.058-0.047,0.086-0.07c-1.217,0.18-2.463,0.386-3.73,0.463c-0.855,0.045-1.716,0.159-2.59,0.159h-0.047
		c-1.235,0-2.452-0.385-3.649-0.473l-0.408,0.188c-0.07-0.006-0.141-0.026-0.21-0.031c-9.691-0.859-17.821-4.587-20.897-9.416
		C342.115,315.036,342.148,314.985,342.179,314.941 M367.298,332.712c-15.019,0-27.234-6.287-27.234-14.006
		c0-0.404,0.047-0.823,0.125-1.229c4.574,5.929,15.033,9.789,27.109,9.789s22.534-3.86,27.109-9.789
		c0.078,0.406,0.125,0.825,0.125,1.229C394.532,326.425,382.316,332.712,367.298,332.712 M340.298,302.365
		c-0.639-1.245-1.013-2.552-1.013-3.891c0-8.17,12.543-14.784,28.013-14.784s28.013,6.614,28.013,14.784
		c0,1.339-0.374,2.646-1.013,3.891c-3.237-6.287-14.083-10.894-27-10.894S343.533,296.078,340.298,302.365 M234.471,302.365
		c-0.638-1.245-1.011-2.552-1.011-3.891c0-8.17,12.543-14.784,28.013-14.784s28.013,6.614,28.013,14.784
		c0,1.339-0.374,2.646-1.011,3.891c-3.237-6.287-14.085-10.894-27.002-10.894C248.557,291.472,237.708,296.078,234.471,302.365
		 M286.356,350.189c0.312-0.219,0.593-0.421,0.888-0.561c0.561-0.312,1.074-0.561,1.556-0.716c0.453-0.188,0.842-0.327,1.167-0.423
		c0.639-0.184,0.982-0.293,0.982-0.293s-0.281,0.217-0.825,0.606c-0.531,0.389-1.292,0.997-2.133,1.82
		c-0.233,0.201-0.419,0.437-0.623,0.686c-0.202,0.231-0.419,0.481-0.574,0.778c-0.39,0.528-0.459,1.244-0.536,1.634
		c-0.014,0.153,0.133,0.421,0.133,0.623v0.17v0.095c0-0.25-0.133-0.048-0.133-0.109l-0.067,0.015l0.029,0.219
		c0.079,0.28,0.2,0.544,0.389,0.824c0.389,0.53,0.946,1.09,1.696,1.572c1.494,0.966,3.483,1.712,5.632,2.35
		c2.178,0.62,4.544,1.105,7.034,1.479c2.489,0.37,5.104,0.621,7.766,0.823c1.322,0.079,2.677,0.215,4.016,0.26l2.006,0.12h2.055
		c5.432,0,10.863-0.462,15.827-1.271c2.49-0.405,4.855-0.939,7.003-1.624c2.117-0.669,4.094-1.482,5.447-2.524
		c1.386-1.059,1.884-2.109,1.541-3.388c-0.343-1.259-1.417-2.368-2.288-3.131c-0.888-0.778-1.648-1.372-2.209-1.746
		c-0.546-0.376-0.841-0.576-0.841-0.576s0.342,0.093,0.98,0.263c0.638,0.172,1.604,0.451,2.755,1.027
		c1.136,0.592,2.661,1.292,3.767,3.175c0.247,0.483,0.514,0.997,0.591,1.634l0.093,0.451l0.016,0.469
		c0.031,0.17-0.031,0.621-0.093,0.979c-0.265,1.354-1.013,2.442-1.836,3.393c-1.713,1.883-3.876,3.19-6.226,4.295
		c-2.351,1.09-4.902,1.945-7.563,2.615c-2.661,0.685-5.448,1.198-8.297,1.51c-2.831,0.356-5.743,0.498-8.635,0.528l-2.149-0.03
		l-2.196-0.079c-1.449-0.046-2.884-0.202-4.301-0.342c-2.848-0.298-5.642-0.778-8.316-1.416c-2.662-0.639-5.23-1.463-7.596-2.49
		c-2.35-1.061-4.56-2.304-6.334-4c-0.871-0.855-1.732-1.836-2.185-3.018c-0.233-0.608-0.489-1.229-0.489-1.853v-0.467l0.133-0.221
		l0.134-0.028l0.012-0.078l0.049-0.172c0.045-0.217,0.076-0.404,0.151-0.653c0.237-0.576,0.469-1.167,0.778-1.494
		c0.142-0.187,0.281-0.373,0.421-0.561c0.172-0.14,0.327-0.295,0.482-0.435C285.734,350.609,286.062,350.373,286.356,350.189
		 M290.264,318.706c0-0.98-0.188-1.961-0.546-2.957c0.049-0.076,0.095-0.139,0.14-0.218l0.359-0.716l-0.359-0.716
		c-3.624-7.019-15.032-11.734-28.385-11.734s-24.76,4.716-28.387,11.734l-0.356,0.716l0.356,0.716
		c0.048,0.079,0.093,0.142,0.142,0.218c-0.358,0.996-0.545,1.977-0.545,2.957c0,8.575,12.916,15.562,28.79,15.562
		S290.264,327.281,290.264,318.706 M236.353,314.941c2.921-4.451,10.142-8.012,18.896-9.09c-1.898,1.712-3.112,4.188-3.112,6.956
		c0,5.151,4.187,9.338,9.337,9.338c4.684,0,8.543-3.455,9.229-7.953c-0.655,0.39-1.416,0.623-2.227,0.623
		c-2.427,0-4.404-1.977-4.404-4.42c0-2.239,1.682-4.06,3.844-4.342c-0.077-0.077-0.155-0.14-0.217-0.202
		c0.356,0.046,0.7,0.095,1.059,0.156c0.108,0.015,0.216,0.03,0.325,0.046c0.125,0.016,0.25,0.031,0.359,0.046
		c7.96,1.28,14.422,4.686,17.151,8.842c0.029,0.044,0.064,0.159,0.092,0.204c-3.517,5.524-13.68,9.668-25.212,9.668h-0.047
		c-11.517,0-21.647-4.144-25.164-9.668C236.289,315.101,236.323,314.985,236.353,314.941 M234.238,318.706
		c0-0.404,0.047-0.823,0.125-1.229c4.576,5.929,15.032,9.789,27.109,9.789c12.076,0,22.534-3.86,27.11-9.789
		c0.077,0.406,0.124,0.825,0.124,1.229c0,7.719-12.218,14.006-27.234,14.006S234.238,326.425,234.238,318.706 M270.702,405.653
		c9.912,13.991,27.856,33.864,45.332,34.689c17.68,0.84,34.938-17.541,47.341-33.195
		C334.088,409.56,301.001,410.308,270.702,405.653 M345.511,413.887c-0.265,4.03-0.778,5.976-0.778,5.976s-29.569,2.973-52.399,0
		c-0.249-1.821-1.027-5.976-1.027-5.976S332.407,416.221,345.511,413.887"/>
</g>
</svg>
